<mxfile host="app.diagrams.net" modified="2023-09-13T08:56:14.193Z" agent="Mozilla/5.0 (X11; Linux x86_64) AppleWebKit/537.36 (KHTML, like Gecko) Chrome/116.0.0.0 Safari/537.36" etag="klCVUAmefokAa5Xt9Zq9" version="21.7.4" type="device">
  <diagram name="Page-1" id="lCp6fPsICLk8MU9H2ciJ">
    <mxGraphModel dx="1121" dy="731" grid="1" gridSize="10" guides="1" tooltips="1" connect="1" arrows="1" fold="1" page="1" pageScale="1" pageWidth="850" pageHeight="1100" math="0" shadow="0">
      <root>
        <mxCell id="0" />
        <mxCell id="1" parent="0" />
        <mxCell id="ehq8woWxYnmpTR0Z6O5Y-5" value="" style="ellipse;whiteSpace=wrap;html=1;aspect=fixed;fillColor=none;strokeColor=#009900;dashed=1;dashPattern=12 12;" vertex="1" parent="1">
          <mxGeometry x="280" y="480" width="240" height="240" as="geometry" />
        </mxCell>
        <mxCell id="ehq8woWxYnmpTR0Z6O5Y-10" value="" style="ellipse;whiteSpace=wrap;html=1;aspect=fixed;fillColor=none;strokeColor=#7EA6E0;dashed=1;" vertex="1" parent="1">
          <mxGeometry x="200" y="400" width="400" height="400" as="geometry" />
        </mxCell>
        <mxCell id="ehq8woWxYnmpTR0Z6O5Y-9" value="" style="ellipse;whiteSpace=wrap;html=1;aspect=fixed;fillColor=none;strokeWidth=4;" vertex="1" parent="1">
          <mxGeometry x="240" y="400" width="400" height="400" as="geometry" />
        </mxCell>
        <mxCell id="ehq8woWxYnmpTR0Z6O5Y-1" value="" style="ellipse;whiteSpace=wrap;html=1;aspect=fixed;fillColor=none;" vertex="1" parent="1">
          <mxGeometry x="280" y="120" width="240" height="240" as="geometry" />
        </mxCell>
        <mxCell id="ehq8woWxYnmpTR0Z6O5Y-2" value="" style="whiteSpace=wrap;html=1;aspect=fixed;fillColor=none;" vertex="1" parent="1">
          <mxGeometry x="360" y="200" width="80" height="80" as="geometry" />
        </mxCell>
        <mxCell id="ehq8woWxYnmpTR0Z6O5Y-3" value="" style="ellipse;whiteSpace=wrap;html=1;aspect=fixed;fillColor=none;strokeWidth=3;" vertex="1" parent="1">
          <mxGeometry x="320" y="480" width="240" height="240" as="geometry" />
        </mxCell>
        <mxCell id="ehq8woWxYnmpTR0Z6O5Y-4" value="" style="whiteSpace=wrap;html=1;aspect=fixed;fillColor=none;strokeWidth=3;" vertex="1" parent="1">
          <mxGeometry x="400" y="560" width="80" height="80" as="geometry" />
        </mxCell>
        <mxCell id="ehq8woWxYnmpTR0Z6O5Y-6" value="" style="whiteSpace=wrap;html=1;aspect=fixed;fillColor=none;strokeColor=#009900;dashed=1;" vertex="1" parent="1">
          <mxGeometry x="360" y="560" width="80" height="80" as="geometry" />
        </mxCell>
        <mxCell id="ehq8woWxYnmpTR0Z6O5Y-7" value="Broken lines: Previous position, 1 line thick&lt;br&gt;Continuous lines: Current position, 3 lines thick&lt;br&gt;&lt;br&gt;LOD 0: Square in the middle&amp;nbsp;&lt;br&gt;LOD 1: Smallest circle&lt;br&gt;LOD 2: Biggest circle" style="text;html=1;strokeColor=none;fillColor=none;align=left;verticalAlign=top;whiteSpace=wrap;rounded=0;" vertex="1" parent="1">
          <mxGeometry x="40" y="800" width="270" height="90" as="geometry" />
        </mxCell>
        <mxCell id="ehq8woWxYnmpTR0Z6O5Y-14" value="" style="group" vertex="1" connectable="0" parent="1">
          <mxGeometry x="640" y="840" width="370" height="160" as="geometry" />
        </mxCell>
        <mxCell id="ehq8woWxYnmpTR0Z6O5Y-12" value="&lt;ol&gt;&lt;li&gt;LOD 0 Moving on the right&lt;/li&gt;&lt;li&gt;Stepping to LOD 0&lt;br&gt;&lt;/li&gt;&lt;li&gt;Assume everything is loaded async&lt;/li&gt;&lt;li&gt;Once the new chunk is available&lt;/li&gt;&lt;li&gt;Delete the old chunk&lt;/li&gt;&lt;/ol&gt;" style="text;html=1;strokeColor=none;fillColor=none;align=left;verticalAlign=top;whiteSpace=wrap;rounded=0;" vertex="1" parent="ehq8woWxYnmpTR0Z6O5Y-14">
          <mxGeometry y="30" width="370" height="130" as="geometry" />
        </mxCell>
        <mxCell id="ehq8woWxYnmpTR0Z6O5Y-13" value="Draft" style="text;html=1;strokeColor=none;fillColor=none;align=center;verticalAlign=middle;whiteSpace=wrap;rounded=0;" vertex="1" parent="ehq8woWxYnmpTR0Z6O5Y-14">
          <mxGeometry x="130" width="60" height="30" as="geometry" />
        </mxCell>
        <mxCell id="ehq8woWxYnmpTR0Z6O5Y-16" value="Current LOD 0" style="rounded=1;whiteSpace=wrap;html=1;fillColor=none;" vertex="1" parent="1">
          <mxGeometry x="320" y="920" width="120" height="60" as="geometry" />
        </mxCell>
        <mxCell id="ehq8woWxYnmpTR0Z6O5Y-18" value="Loaded async" style="rounded=1;whiteSpace=wrap;html=1;fillColor=none;" vertex="1" parent="1">
          <mxGeometry x="480" y="1000" width="120" height="60" as="geometry" />
        </mxCell>
        <mxCell id="ehq8woWxYnmpTR0Z6O5Y-22" value="Previous LOD 0" style="rounded=1;whiteSpace=wrap;html=1;fillColor=none;" vertex="1" parent="1">
          <mxGeometry x="320" y="1000" width="120" height="60" as="geometry" />
        </mxCell>
        <mxCell id="ehq8woWxYnmpTR0Z6O5Y-23" value="Previous LOD 0" style="rounded=1;whiteSpace=wrap;html=1;fillColor=none;" vertex="1" parent="1">
          <mxGeometry x="320" y="1080" width="120" height="60" as="geometry" />
        </mxCell>
        <mxCell id="ehq8woWxYnmpTR0Z6O5Y-32" value="" style="group" vertex="1" connectable="0" parent="1">
          <mxGeometry x="40" y="940" width="240" height="194" as="geometry" />
        </mxCell>
        <mxCell id="ehq8woWxYnmpTR0Z6O5Y-25" value="Items" style="swimlane;fontStyle=0;childLayout=stackLayout;horizontal=1;startSize=30;horizontalStack=0;resizeParent=1;resizeParentMax=0;resizeLast=0;collapsible=1;marginBottom=0;whiteSpace=wrap;html=1;" vertex="1" parent="ehq8woWxYnmpTR0Z6O5Y-32">
          <mxGeometry width="230" height="234" as="geometry" />
        </mxCell>
        <mxCell id="ehq8woWxYnmpTR0Z6O5Y-26" value="CL0: Square in the middle 3 lines thick" style="text;strokeColor=none;fillColor=none;align=left;verticalAlign=middle;spacingLeft=4;spacingRight=4;overflow=hidden;points=[[0,0.5],[1,0.5]];portConstraint=eastwest;rotatable=0;whiteSpace=wrap;html=1;" vertex="1" parent="ehq8woWxYnmpTR0Z6O5Y-25">
          <mxGeometry y="30" width="230" height="34" as="geometry" />
        </mxCell>
        <mxCell id="ehq8woWxYnmpTR0Z6O5Y-27" value="CL1: Smallest circle 3 lines thick" style="text;strokeColor=none;fillColor=none;align=left;verticalAlign=middle;spacingLeft=4;spacingRight=4;overflow=hidden;points=[[0,0.5],[1,0.5]];portConstraint=eastwest;rotatable=0;whiteSpace=wrap;html=1;" vertex="1" parent="ehq8woWxYnmpTR0Z6O5Y-25">
          <mxGeometry y="64" width="230" height="34" as="geometry" />
        </mxCell>
        <mxCell id="ehq8woWxYnmpTR0Z6O5Y-28" value="CL2: Biggest circle 3 lines thick" style="text;strokeColor=none;fillColor=none;align=left;verticalAlign=middle;spacingLeft=4;spacingRight=4;overflow=hidden;points=[[0,0.5],[1,0.5]];portConstraint=eastwest;rotatable=0;whiteSpace=wrap;html=1;" vertex="1" parent="ehq8woWxYnmpTR0Z6O5Y-25">
          <mxGeometry y="98" width="230" height="34" as="geometry" />
        </mxCell>
        <mxCell id="ehq8woWxYnmpTR0Z6O5Y-33" value="PL0: Square in the middle 1 lines thick" style="text;strokeColor=none;fillColor=none;align=left;verticalAlign=middle;spacingLeft=4;spacingRight=4;overflow=hidden;points=[[0,0.5],[1,0.5]];portConstraint=eastwest;rotatable=0;whiteSpace=wrap;html=1;" vertex="1" parent="ehq8woWxYnmpTR0Z6O5Y-25">
          <mxGeometry y="132" width="230" height="34" as="geometry" />
        </mxCell>
        <mxCell id="ehq8woWxYnmpTR0Z6O5Y-34" value="PL1: Smallest circle 1 lines thick" style="text;strokeColor=none;fillColor=none;align=left;verticalAlign=middle;spacingLeft=4;spacingRight=4;overflow=hidden;points=[[0,0.5],[1,0.5]];portConstraint=eastwest;rotatable=0;whiteSpace=wrap;html=1;" vertex="1" parent="ehq8woWxYnmpTR0Z6O5Y-25">
          <mxGeometry y="166" width="230" height="34" as="geometry" />
        </mxCell>
        <mxCell id="ehq8woWxYnmpTR0Z6O5Y-35" value="PL2: Biggest circle 1 lines thick" style="text;strokeColor=none;fillColor=none;align=left;verticalAlign=middle;spacingLeft=4;spacingRight=4;overflow=hidden;points=[[0,0.5],[1,0.5]];portConstraint=eastwest;rotatable=0;whiteSpace=wrap;html=1;" vertex="1" parent="ehq8woWxYnmpTR0Z6O5Y-25">
          <mxGeometry y="200" width="230" height="34" as="geometry" />
        </mxCell>
        <mxCell id="ehq8woWxYnmpTR0Z6O5Y-36" value="CL: &lt;br&gt;- Current LOD&lt;br&gt;- Continuous lines&lt;br&gt;PL: &lt;br&gt;- Previous LOD&lt;br&gt;- Broken lines" style="rounded=1;whiteSpace=wrap;html=1;fillColor=none;align=left;verticalAlign=top;" vertex="1" parent="1">
          <mxGeometry x="40" y="1200" width="270" height="120" as="geometry" />
        </mxCell>
        <mxCell id="ehq8woWxYnmpTR0Z6O5Y-37" value="Current LOD 0" style="rounded=1;whiteSpace=wrap;html=1;fillColor=none;" vertex="1" parent="1">
          <mxGeometry x="440" y="1160" width="120" height="60" as="geometry" />
        </mxCell>
      </root>
    </mxGraphModel>
  </diagram>
</mxfile>
